<?xml version="1.0" standalone="no"?>
<!DOCTYPE svg PUBLIC "-//W3C//DTD SVG 20010904//EN"
 "http://www.w3.org/TR/2001/REC-SVG-20010904/DTD/svg10.dtd">
<svg version="1.0" xmlns="http://www.w3.org/2000/svg"
 width="549.000000pt" height="546.000000pt" viewBox="0 0 549.000000 546.000000"
 preserveAspectRatio="xMidYMid meet">

<g transform="translate(0.000000,546.000000) scale(0.100000,-0.100000)"
fill="#000000" stroke="none">
<path d="M3606 4107 c-13 -19 -74 -163 -203 -477 -104 -255 -179 -434 -210
-503 -33 -74 -34 -79 -19 -102 9 -14 131 -314 271 -667 141 -354 264 -663 275
-688 11 -25 58 -141 104 -259 47 -117 88 -217 93 -222 10 -9 910 -16 919 -6 4
4 -2 31 -14 60 -11 28 -78 192 -148 362 -69 171 -145 357 -169 415 -23 58 -78
193 -122 300 -318 776 -433 1058 -559 1370 -197 484 -187 465 -218 417z"/>
<path d="M2013 4092 c-9 -5 -677 -1654 -813 -2007 -15 -38 -100 -252 -189
-473 -89 -222 -160 -410 -157 -417 4 -11 91 -14 443 -17 241 -2 444 -1 452 3
7 3 30 46 50 95 34 80 198 476 221 532 5 12 13 22 18 22 5 0 25 -39 44 -87 20
-49 81 -196 136 -328 348 -836 487 -1172 539 -1302 45 -110 47 -113 77 -113
30 0 33 4 70 92 21 51 71 170 111 263 40 94 109 258 155 365 45 107 90 215
101 239 10 24 19 54 19 67 0 12 -30 96 -66 186 -37 90 -107 262 -156 383 -80
197 -203 499 -323 795 -23 58 -82 202 -130 320 -48 118 -112 276 -142 350
-106 261 -287 707 -353 870 -63 158 -78 181 -107 162z"/>
<path d="M769 3983 c-304 -316 -530 -740 -639 -1198 -55 -232 -65 -325 -65
-630 0 -154 3 -292 8 -308 l7 -27 188 2 c161 3 186 5 183 18 -3 8 -7 130 -9
270 -5 350 22 534 124 840 82 244 274 575 443 765 44 50 80 95 79 100 0 6 -56
63 -123 128 l-121 117 -75 -77z"/>
<path d="M4562 3967 c-45 -45 -82 -86 -82 -92 0 -5 21 -32 46 -60 158 -173
228 -266 328 -432 156 -261 263 -558 311 -868 17 -110 22 -581 6 -647 -5 -20
-6 -39 -3 -42 9 -9 250 -7 256 2 3 5 11 88 18 185 24 349 -35 735 -168 1102
-76 207 -242 504 -389 695 -62 80 -214 240 -229 240 -6 0 -48 -38 -94 -83z"/>
</g>
</svg>
